<svg width="48" height="48" viewBox="0 0 48 48" fill="none" xmlns="http://www.w3.org/2000/svg">
<path d="M40.9706 7.02942C36.4376 2.49646 30.4105 0 24 0C17.5891 0 11.5624 2.49646 7.02942 7.02942C2.49646 11.5624 0 17.5891 0 24C0 30.4105 2.49646 36.4376 7.02942 40.9706C11.5624 45.5035 17.5891 48 24 48C30.4105 48 36.4376 45.5035 40.9706 40.9706C45.5035 36.4376 48 30.4105 48 24C48 17.5891 45.5035 11.5624 40.9706 7.02942ZM12.0319 41.4738C13.0356 35.6942 18.0439 31.4312 24 31.4312C29.9564 31.4312 34.9644 35.6942 35.9681 41.4738C32.5605 43.8149 28.4377 45.1875 24 45.1875C19.5623 45.1875 15.4395 43.8149 12.0319 41.4738ZM16.3689 20.9875C16.3689 16.7794 19.7922 13.3564 24 13.3564C28.2078 13.3564 31.6311 16.7798 31.6311 20.9875C31.6311 25.1953 28.2078 28.6187 24 28.6187C19.7922 28.6187 16.3689 25.1953 16.3689 20.9875ZM38.4042 39.5229C37.6472 36.8324 36.1439 34.3912 34.0367 32.4844C32.744 31.3143 31.2726 30.3911 29.6906 29.7404C32.5499 27.8752 34.444 24.6486 34.444 20.9875C34.444 15.2289 29.7587 10.5439 24 10.5439C18.2413 10.5439 13.5564 15.2289 13.5564 20.9875C13.5564 24.6486 15.4504 27.8752 18.3094 29.7404C16.7278 30.3911 15.256 31.314 13.9633 32.484C11.8564 34.3909 10.3528 36.832 9.59583 39.5226C5.42651 35.6506 2.8125 30.1252 2.8125 24C2.8125 12.3171 12.3171 2.8125 24 2.8125C35.6829 2.8125 45.1875 12.3171 45.1875 24C45.1875 30.1256 42.5735 35.651 38.4042 39.5229Z" fill="#888888"/>
</svg>
