<svg width="24" height="24" viewBox="0 0 24 24" fill="none" xmlns="http://www.w3.org/2000/svg">
<rect x="7" y="6" width="12" height="12" fill="#0B5A73"/>
<path fill="#ffffff" d="M20.4855 3.51451C15.7995 -1.1715 8.20053 -1.1715 3.51451 3.51451C-1.1715 8.20053 -1.1715 15.7995 3.51451 20.4855C8.20053 25.1715 15.7995 25.1715 20.4855 20.4855C25.1715 15.7995 25.1715 8.20053 20.4855 3.51451ZM17.2433 12.7346L13.4945 14.8876L9.82164 17.0153C9.69499 17.1166 9.51768 17.1673 9.34037 17.1673C8.8591 17.1673 8.47916 16.7873 8.47916 16.3061V12V7.6686C8.47916 7.51662 8.50449 7.38997 8.58047 7.238C8.80844 6.83272 9.34037 6.68074 9.74565 6.93404L13.4438 9.06174C13.4691 9.06174 13.4691 9.08707 13.4945 9.08707L17.2433 11.2401C17.3699 11.3161 17.4712 11.4174 17.5726 11.5441C17.8005 11.9747 17.6485 12.5066 17.2433 12.7346Z"/>
</svg>
