<svg width="24" height="24" viewBox="0 0 24 24" fill="none" xmlns="http://www.w3.org/2000/svg">
    <path fill="#333333" d="M12 24C18.6274 24 24 18.6274 24 12C24 5.37258 18.6274 0 12 0C5.37258 0 0 5.37258 0 12C0 18.6274 5.37258 24 12 24Z"/>
    <path fill="#ffffff" d="M18.5883 18.1765H18.1765V8.70591C18.1765 8.47829 17.9923 8.29411 17.7648 8.29411H16.1177C15.89 8.29411 15.7059 8.47829 15.7059 8.70591V18.1765H14.8824V13.6471C14.8824 13.4194 14.6982 13.2353 14.4706 13.2353H12.8235C12.5959 13.2353 12.4118 13.4195 12.4118 13.6471V18.1765H11.5882V10.353C11.5882 10.1254 11.404 9.94124 11.1765 9.94124H9.52939C9.30182 9.94124 9.11764 10.1254 9.11764 10.353V18.1765H8.29409V14.4706C8.29409 14.2431 8.10991 14.0589 7.88234 14.0589H6.23525C6.00768 14.0589 5.8235 14.2431 5.8235 14.4706V18.1765H5.41175C5.18413 18.1765 5 18.3607 5 18.5883C5 18.8158 5.18418 19 5.41175 19H18.5883C18.8159 19 19 18.8158 19 18.5883C19 18.3607 18.8158 18.1765 18.5883 18.1765ZM6.14837 12.1371L6.39263 12.2165L6.24169 12.4242C6.10777 12.6084 6.14879 12.8657 6.33255 12.9993C6.51817 13.1339 6.77513 13.0912 6.90758 12.9084L7.05875 12.7003L7.20997 12.9084C7.34241 13.0911 7.59928 13.134 7.78499 12.9993C7.96875 12.8657 8.00978 12.6084 7.87585 12.4242L7.72491 12.2165L7.96912 12.1371C8.18547 12.0668 8.3041 11.8343 8.23373 11.6184C8.16294 11.4017 7.93014 11.2838 7.71499 11.3538L7.4705 11.4333V11.1764C7.4705 10.9488 7.28632 10.7647 7.05875 10.7647C6.83118 10.7647 6.647 10.9489 6.647 11.1764V11.4333L6.40251 11.3538C6.18657 11.2846 5.95414 11.4021 5.88376 11.6184C5.81344 11.8343 5.93207 12.0668 6.14837 12.1371ZM9.44251 8.01949L9.68672 8.09886L9.53578 8.30658C9.40186 8.49076 9.44288 8.74809 9.62664 8.8816C9.81226 9.01622 10.0692 8.97353 10.2017 8.79074L10.3528 8.58264L10.504 8.79074C10.6365 8.97348 10.8934 9.01627 11.079 8.8816C11.2628 8.74809 11.3038 8.49072 11.1699 8.30658L11.019 8.09886L11.2632 8.01949C11.4795 7.94912 11.5981 7.71669 11.5278 7.5008C11.457 7.28408 11.2246 7.16462 11.009 7.23619L10.7645 7.31565V7.05883C10.7645 6.83121 10.5804 6.64708 10.3528 6.64708C10.1252 6.64708 9.94104 6.83126 9.94104 7.05883V7.31565L9.69655 7.23619C9.48103 7.1654 9.2486 7.28445 9.17781 7.5008C9.10758 7.71673 9.22621 7.94912 9.44251 8.01949ZM12.7366 11.3136L12.9809 11.393L12.8299 11.6007C12.696 11.7849 12.737 12.0422 12.9208 12.1757C13.1064 12.3103 13.3634 12.2676 13.4958 12.0849L13.647 11.8768L13.7981 12.0849C13.9306 12.2676 14.1875 12.3104 14.3732 12.1757C14.5569 12.0422 14.598 11.7849 14.464 11.6007L14.3131 11.393L14.5573 11.3136C14.7737 11.2432 14.8923 11.0108 14.8219 10.7949C14.7515 10.5785 14.5191 10.4595 14.3032 10.5303L14.0587 10.6097V10.3529C14.0587 10.1253 13.8745 9.94115 13.6469 9.94115C13.4194 9.94115 13.2352 10.1253 13.2352 10.3529V10.6097L12.9907 10.5303C12.7755 10.4599 12.5427 10.5785 12.4719 10.7949C12.4017 11.0108 12.5203 11.2432 12.7366 11.3136ZM16.0308 6.37246L16.275 6.45182L16.1241 6.65955C15.9901 6.84373 16.0312 7.10106 16.2149 7.23457C16.4005 7.36919 16.6575 7.3265 16.7899 7.14371L16.9412 6.93561L17.0923 7.14371C17.2248 7.32645 17.4817 7.36924 17.6674 7.23457C17.8511 7.10106 17.8921 6.84373 17.7582 6.65955L17.6073 6.45182L17.8515 6.37246C18.0679 6.30209 18.1865 6.06965 18.1161 5.85372C18.0454 5.63737 17.8138 5.51957 17.5974 5.58911L17.3529 5.66857V5.41175C17.3529 5.18413 17.1687 5 16.9412 5C16.7136 5 16.5294 5.18418 16.5294 5.41175V5.66857L16.2849 5.58911C16.0682 5.51995 15.8365 5.63737 15.7662 5.85372C15.6958 6.06965 15.8144 6.30209 16.0308 6.37246Z" />
</svg>
