<svg width="16" height="16" viewBox="0 0 16 16" fill="none" xmlns="http://www.w3.org/2000/svg">
<g clip-path="url(#clip0)">
<path d="M15.4784 8.52173H5.39137C5.10337 8.52173 4.86963 8.288 4.86963 8C4.86963 7.712 5.10337 7.47827 5.39137 7.47827H15.4784C15.7664 7.47827 16.0002 7.712 16.0002 8C16.0002 8.288 15.7664 8.52173 15.4784 8.52173Z" fill="black"/>
<path d="M8.30417 11.6091C8.17055 11.6091 8.03706 11.5584 7.93541 11.4562L5.15285 8.67358C4.94905 8.46965 4.94905 8.13923 5.15285 7.93543L7.93541 5.15285C8.13922 4.94905 8.46963 4.94905 8.67357 5.15285C8.87737 5.35666 8.87737 5.68708 8.67357 5.89088L6.25964 8.30482L8.67357 10.7188C8.87737 10.9226 8.87737 11.253 8.67357 11.4568C8.57128 11.5584 8.43766 11.6091 8.30417 11.6091Z" fill="black"/>
<path d="M7.65222 15.6522C3.43308 15.6522 0 12.2191 0 7.99999C0 3.78086 3.43308 0.347778 7.65222 0.347778C10.8181 0.347778 13.6132 2.25246 14.7743 5.20074C14.88 5.46849 14.7478 5.77114 14.48 5.8775C14.2122 5.98195 13.9095 5.85177 13.8032 5.58262C12.8007 3.03647 10.3861 1.39126 7.65222 1.39126C4.00832 1.39126 1.04348 4.35623 1.04348 7.99999C1.04348 11.6438 4.00832 14.6087 7.65222 14.6087C10.3861 14.6087 12.8007 12.9635 13.8032 10.4181C13.9089 10.1489 14.2115 10.0188 14.48 10.1231C14.7478 10.2288 14.88 10.5321 14.7743 10.8C13.6132 13.7475 10.8181 15.6522 7.65222 15.6522Z" fill="black"/>
</g>
<defs>
<clipPath id="clip0">
<rect width="16" height="16" fill="white"/>
</clipPath>
</defs>
</svg>
