<svg width="16" height="16" viewBox="0 0 16 16" fill="none" xmlns="http://www.w3.org/2000/svg">
<g clip-path="url(#clip0)">
<path d="M13.6569 2.34314C12.1459 0.832153 10.1368 0 8 0C5.86304 0 3.85413 0.832153 2.34314 2.34314C0.832153 3.85413 0 5.86304 0 8C0 10.1368 0.832153 12.1459 2.34314 13.6569C3.85413 15.1678 5.86304 16 8 16C10.1368 16 12.1459 15.1678 13.6569 13.6569C15.1678 12.1459 16 10.1368 16 8C16 5.86304 15.1678 3.85413 13.6569 2.34314ZM4.01062 13.8246C4.34521 11.8981 6.01465 10.4771 8 10.4771C9.98547 10.4771 11.6548 11.8981 11.9894 13.8246C10.8535 14.605 9.47925 15.0625 8 15.0625C6.52075 15.0625 5.14648 14.605 4.01062 13.8246ZM5.4563 6.99585C5.4563 5.59314 6.59741 4.45215 8 4.45215C9.40259 4.45215 10.5437 5.59326 10.5437 6.99585C10.5437 8.39844 9.40259 9.53955 8 9.53955C6.59741 9.53955 5.4563 8.39844 5.4563 6.99585ZM12.8014 13.1743C12.5491 12.2775 12.048 11.4637 11.3456 10.8281C10.9147 10.4381 10.4242 10.1304 9.89685 9.91345C10.85 9.29175 11.4813 8.21619 11.4813 6.99585C11.4813 5.07629 9.91956 3.51465 8 3.51465C6.08044 3.51465 4.5188 5.07629 4.5188 6.99585C4.5188 8.21619 5.15015 9.29175 6.10315 9.91345C5.57593 10.1304 5.08533 10.438 4.65442 10.828C3.95215 11.4636 3.45093 12.2773 3.19861 13.1742C1.80884 11.8835 0.9375 10.0417 0.9375 8C0.9375 4.10571 4.10571 0.9375 8 0.9375C11.8943 0.9375 15.0625 4.10571 15.0625 8C15.0625 10.0419 14.1912 11.8837 12.8014 13.1743Z" fill="black"/>
</g>
<defs>
<clipPath id="clip0">
<rect width="16" height="16" fill="white"/>
</clipPath>
</defs>
</svg>
