<svg width="24" height="24" viewBox="0 0 24 24" fill="none" xmlns="http://www.w3.org/2000/svg">
<path d="M22.6975 6.60178L13.2681 12.102L21.6503 19.0869C23.1197 17.1012 24.0001 14.6545 24.0001 12C24.0001 10.0565 23.524 8.22557 22.6975 6.60178Z" fill="#ffffff"/>
<path d="M12.75 0V10.7755L21.9936 5.38355C19.9716 2.35373 16.6023 0.225844 12.75 0Z" fill="#ffffff"/>
<path d="M11.5965 12.5404C11.4513 12.4188 11.3438 12.1523 11.3438 12V0C5.0805 0.367078 0 5.64623 0 12C0 18.5911 5.45578 24 12.0469 24C15.4783 24 18.5678 22.4914 20.7498 20.168L11.5965 12.5404Z" fill="#ffffff"/>
</svg>
